<svg width="136" height="97" viewBox="0 0 136 97" fill="none" xmlns="http://www.w3.org/2000/svg">
<g filter="url(#filter0_i_11_1112)">
<circle cx="67.6431" cy="48.3727" r="34.744" fill="#036B52"/>
</g>
<g style="mix-blend-mode:soft-light" filter="url(#filter1_if_11_1112)">
<circle cx="67.6431" cy="48.3727" r="31.1859" fill="#036B52"/>
<circle cx="67.6431" cy="48.3727" r="32.659" stroke="#2FC18C" stroke-width="2.94619"/>
</g>
<g filter="url(#filter2_di_11_1112)">
<circle cx="67.6431" cy="48.3727" r="28.4649" fill="url(#paint0_radial_11_1112)"/>
</g>
<g filter="url(#filter3_d_11_1112)">
<path d="M15.802 51.7416C16.0673 49.8245 17.6059 48.3355 19.5307 48.133L117.555 37.82C120.274 37.5339 122.539 39.875 122.164 42.5828L119.569 61.3301C119.304 63.2472 117.765 64.7362 115.841 64.9387L17.8164 75.2517C15.0978 75.5377 12.8321 73.1967 13.207 70.4889L15.802 51.7416Z" fill="url(#paint1_linear_11_1112)"/>
</g>
<path d="M16.0413 49.7628L122.727 39.5955L119.563 62.6529L12.8422 73.3524L16.0413 49.7628Z" fill="url(#paint2_linear_11_1112)"/>
<g style="mix-blend-mode:overlay" filter="url(#filter4_f_11_1112)">
<path d="M30.2364 56.1717L24.6401 56.7605L26.5739 54.7772L24.9745 69.9647L21.106 70.3717L22.7053 55.1842L24.2598 56.8005L18.6743 57.3882L18.9958 54.3879L30.5472 53.1726L30.2364 56.1717Z" fill="white"/>
<path d="M30.7709 69.3548L32.4967 52.9674L39.2667 52.2552C40.8098 52.0928 41.9513 52.2914 42.6914 52.8507C43.4307 53.4029 43.8537 54.1861 43.9604 55.2003C44.0229 55.7943 43.9868 56.3914 43.8522 56.9916C43.7175 57.5917 43.5019 58.1528 43.2052 58.6747C42.9078 59.1895 42.5364 59.6277 42.091 59.9895C41.6529 60.3506 41.1572 60.5822 40.604 60.6844C40.983 60.6665 41.3395 60.7132 41.6735 60.8245C42.0067 60.9286 42.2831 61.1193 42.5028 61.3965C42.7216 61.6665 42.8565 62.0441 42.9076 62.5295C42.932 62.7613 42.932 63.0397 42.9076 63.3645C42.8904 63.6886 42.8578 64.04 42.8097 64.4186C42.7689 64.7964 42.7245 65.1747 42.6764 65.5533C42.6283 65.9319 42.5925 66.2873 42.5688 66.6194C42.5524 66.9507 42.5564 67.2323 42.5808 67.4641C42.5953 67.6018 42.6158 67.7278 42.6425 67.8422C42.6757 67.9485 42.7138 68.0324 42.7569 68.0938L38.8775 68.502C38.7978 68.3712 38.7431 68.1645 38.7134 67.882C38.6905 67.6646 38.6896 67.412 38.7105 67.1242C38.7308 66.8291 38.7571 66.5223 38.7895 66.2039C38.8284 65.8776 38.8677 65.5548 38.9074 65.2357C38.9471 64.9165 38.9782 64.6203 39.0007 64.3469C39.0224 64.0663 39.0226 63.8245 39.0013 63.6217C38.9578 63.2088 38.7838 62.9121 38.4792 62.7317C38.181 62.5434 37.7639 62.4774 37.2278 62.5338L33.4679 62.9294L35.3359 61.6781L34.5634 68.9558L30.7709 69.3548ZM35.4194 60.8013L33.7786 59.9302L37.6689 59.5209C38.1181 59.4736 38.5239 59.3284 38.8866 59.0851C39.2557 58.8339 39.5371 58.515 39.7308 58.1284C39.931 57.7337 40.0055 57.2937 39.9545 56.8084C39.9049 56.3375 39.7298 55.9604 39.4289 55.677C39.1274 55.3865 38.6759 55.2728 38.0746 55.3361L34.2278 55.7408L36.1628 53.7683L35.4194 60.8013Z" fill="white"/>
<path d="M58.0359 50.2805L52.2205 61.5278L51.6048 67.1629L47.7471 67.5688L48.3411 61.9359L44.7894 51.6741L48.7992 51.2523L51.123 59.7644L49.58 59.9268L53.8305 50.7229L58.0359 50.2805Z" fill="white"/>
<path d="M71.1084 59.2989C70.8928 61.3578 70.2074 62.9534 69.052 64.0858C67.8967 65.2182 66.4134 65.8796 64.6023 66.0702C62.8709 66.2523 61.4994 66.0267 60.4879 65.3933C59.4756 64.7527 58.8936 63.7116 58.7419 62.2699C58.6901 61.7773 58.6817 61.2801 58.7169 60.7784C58.7512 60.2693 58.813 59.6036 58.9023 58.7812L59.8556 50.0891L63.735 49.6809L62.7239 58.9724C62.6804 59.3945 62.6449 59.7535 62.6174 60.0494C62.5972 60.3445 62.5844 60.6058 62.5791 60.8335C62.5802 61.0531 62.593 61.2788 62.6174 61.5106C62.6768 62.0757 62.8623 62.481 63.1738 62.7266C63.4925 62.9714 63.967 63.0606 64.5973 62.9943C65.4232 62.9074 66.0392 62.6009 66.4453 62.0748C66.8586 61.5478 67.1156 60.7883 67.2163 59.7962L68.3316 49.1973L72.211 48.7891L71.1084 59.2989Z" fill="white"/>
<path d="M76.7884 64.5134L73.0068 64.9113L74.7326 48.5239L81.0462 47.8596L83.5453 62.528L83.2896 62.7087L84.893 47.4549L88.6638 47.0582L86.9379 63.4456L80.5809 64.1144L78.0766 49.5015L78.3866 49.315L76.7884 64.5134Z" fill="white"/>
<path d="M92.9787 49.5707L94.9199 47.5536L94.2195 54.2634L93.1312 53.4221L99.7164 52.7293L99.396 55.7404L92.8107 56.4333L94.116 55.2632L93.324 62.7737L89.4554 63.1807L91.1813 46.7933L101.407 45.7175L101.096 48.7167L92.9787 49.5707Z" fill="white"/>
<path d="M108.258 61.4772C107.092 61.5999 106.012 61.4645 105.018 61.0709C104.031 60.6694 103.215 60.0154 102.571 59.1091C101.925 58.1955 101.528 57.0323 101.379 55.6197C101.232 54.2142 101.311 52.8837 101.619 51.6282C101.925 50.3654 102.433 49.2353 103.141 48.2379C103.848 47.2332 104.733 46.415 105.794 45.7833C106.862 45.1435 108.081 44.7516 109.45 44.6076C110.638 44.4826 111.722 44.6176 112.701 45.0127C113.686 45.3998 114.501 46.0428 115.145 46.9419C115.788 47.8338 116.184 48.9861 116.333 50.3988C116.479 51.7897 116.396 53.1206 116.083 54.3914C115.776 55.6542 115.266 56.7955 114.553 57.8154C113.839 58.8281 112.952 59.6575 111.892 60.3038C110.832 60.9427 109.62 61.3339 108.258 61.4772ZM108.285 58.387C109.118 58.2994 109.817 58.0135 110.381 57.5292C110.945 57.045 111.39 56.4379 111.717 55.7077C112.042 54.9703 112.258 54.1748 112.366 53.3211C112.474 52.4602 112.483 51.6131 112.396 50.78C112.308 49.9469 112.123 49.2998 111.84 48.8389C111.556 48.3706 111.204 48.0524 110.784 47.8843C110.369 47.7081 109.913 47.6463 109.413 47.6989C108.58 47.7865 107.88 48.0652 107.314 48.5349C106.748 48.9974 106.3 49.5865 105.973 50.3021C105.645 51.0178 105.431 51.7984 105.329 52.6441C105.228 53.4898 105.222 54.3401 105.312 55.1949C105.446 56.47 105.787 57.3424 106.335 57.8121C106.889 58.2739 107.539 58.4655 108.285 58.387Z" fill="white"/>
</g>
<path d="M31.2829 55.3345L25.6865 55.9233L27.6203 53.94L26.021 69.1275L22.1524 69.5345L23.7518 54.347L25.3062 55.9633L19.7207 56.551L20.0423 53.5506L31.5936 52.3353L31.2829 55.3345Z" fill="url(#paint3_linear_11_1112)"/>
<path d="M31.8174 68.5176L33.5432 52.1302L40.3131 51.418C41.8562 51.2556 42.9978 51.4541 43.7378 52.0135C44.4771 52.5657 44.9001 53.3489 45.0068 54.3631C45.0693 54.9571 45.0332 55.5542 44.8986 56.1544C44.764 56.7545 44.5483 57.3155 44.2517 57.8375C43.9542 58.3522 43.5828 58.7905 43.1375 59.1523C42.6994 59.5134 42.2037 59.745 41.6504 59.8471C42.0294 59.8292 42.3859 59.876 42.7199 59.9873C43.0532 60.0914 43.3296 60.2821 43.5492 60.5593C43.768 60.8292 43.903 61.2069 43.9541 61.6923C43.9785 61.9241 43.9784 62.2025 43.954 62.5273C43.9368 62.8514 43.9042 63.2028 43.8562 63.5814C43.8153 63.9592 43.7709 64.3375 43.7228 64.7161C43.6748 65.0947 43.6389 65.4501 43.6153 65.7822C43.5988 66.1135 43.6028 66.3951 43.6272 66.6269C43.6417 66.7645 43.6623 66.8906 43.689 67.0049C43.7221 67.1113 43.7603 67.1952 43.8033 67.2566L39.9239 67.6647C39.8442 67.534 39.7895 67.3273 39.7598 67.0448C39.7369 66.8274 39.736 66.5748 39.757 66.287C39.7772 65.9918 39.8035 65.6851 39.836 65.3667C39.8749 65.0403 39.9142 64.7176 39.9538 64.3985C39.9935 64.0793 40.0246 63.7831 40.0471 63.5097C40.0689 63.2291 40.0691 62.9873 40.0477 62.7845C40.0043 62.3715 39.8302 62.0749 39.5256 61.8945C39.2274 61.7062 38.8103 61.6402 38.2742 61.6966L34.5143 62.0921L36.3823 60.8409L35.6098 68.1186L31.8174 68.5176ZM36.4659 59.9641L34.8251 59.093L38.7153 58.6837C39.1645 58.6364 39.5704 58.4912 39.933 58.2479C40.3021 57.9967 40.5835 57.6777 40.7772 57.2911C40.9774 56.8965 41.052 56.4565 41.0009 55.9711C40.9514 55.5002 40.7762 55.1231 40.4754 54.8398C40.1738 54.5493 39.7224 54.4356 39.1211 54.4989L35.2743 54.9036L37.2092 52.9311L36.4659 59.9641Z" fill="url(#paint4_linear_11_1112)"/>
<path d="M59.0823 49.4433L53.2669 60.6905L52.6512 66.3257L48.7935 66.7316L49.3875 61.0987L45.8358 50.8369L49.8456 50.4151L52.1695 58.9272L50.6264 59.0896L54.8769 49.8857L59.0823 49.4433Z" fill="url(#paint5_linear_11_1112)"/>
<path d="M72.1548 58.4616C71.9393 60.5206 71.2538 62.1162 70.0985 63.2486C68.9431 64.3809 67.4599 65.0424 65.6487 65.2329C63.9173 65.4151 62.5458 65.1895 61.5343 64.5561C60.522 63.9155 59.9401 62.8744 59.7884 61.4327C59.7366 60.9401 59.7282 60.4429 59.7633 59.9411C59.7976 59.4321 59.8594 58.7664 59.9487 57.944L60.902 49.2518L64.7814 48.8437L63.7703 58.1352C63.7268 58.5573 63.6914 58.9163 63.6639 59.2121C63.6437 59.5072 63.6309 59.7686 63.6255 59.9962C63.6267 60.2159 63.6394 60.4416 63.6638 60.6734C63.7233 61.2385 63.9087 61.6438 64.2202 61.8894C64.539 62.1342 65.0135 62.2234 65.6438 62.1571C66.4696 62.0702 67.0856 61.7637 67.4917 61.2375C67.9051 60.7106 68.1621 59.9511 68.2628 58.959L69.3781 48.3601L73.2575 47.9519L72.1548 58.4616Z" fill="url(#paint6_linear_11_1112)"/>
<path d="M77.8349 63.6762L74.0532 64.074L75.7791 47.6866L82.0926 47.0224L84.5917 61.6908L84.3361 61.8715L85.9395 46.6177L89.7102 46.221L87.9844 62.6084L81.6273 63.2772L79.1231 48.6642L79.4331 48.4778L77.8349 63.6762Z" fill="url(#paint7_linear_11_1112)"/>
<path d="M94.0251 48.7335L95.9664 46.7164L95.266 53.4262L94.1776 52.5849L100.763 51.892L100.442 54.9032L93.8572 55.5961L95.1624 54.426L94.3705 61.9365L90.5019 62.3435L92.2277 45.9561L102.453 44.8803L102.143 47.8795L94.0251 48.7335Z" fill="url(#paint8_linear_11_1112)"/>
<path d="M109.305 60.6399C108.138 60.7627 107.058 60.6272 106.065 60.2337C105.078 59.8322 104.262 59.1782 103.617 58.2719C102.972 57.3583 102.575 56.1951 102.426 54.7824C102.278 53.377 102.358 52.0465 102.665 50.791C102.972 49.5282 103.479 48.3981 104.187 47.4006C104.895 46.396 105.779 45.5778 106.841 44.9461C107.909 44.3063 109.127 43.9144 110.496 43.7704C111.685 43.6454 112.768 43.7804 113.747 44.1755C114.733 44.5625 115.548 45.2056 116.192 46.1047C116.835 46.9966 117.231 48.1489 117.379 49.5615C117.526 50.9525 117.442 52.2833 117.129 53.5542C116.823 54.817 116.313 55.9583 115.6 56.9782C114.886 57.9909 113.999 58.8203 112.939 59.4665C111.878 60.1055 110.667 60.4967 109.305 60.6399ZM109.331 57.5498C110.164 57.4622 110.863 57.1762 111.427 56.692C111.992 56.2078 112.437 55.6007 112.763 54.8705C113.088 54.1331 113.305 53.3376 113.413 52.4839C113.52 51.6229 113.53 50.7759 113.442 49.9428C113.354 49.1097 113.169 48.4626 112.886 48.0016C112.603 47.5334 112.251 47.2152 111.83 47.047C111.416 46.8709 110.959 46.8091 110.459 46.8617C109.626 46.9493 108.926 47.228 108.361 47.6977C107.794 48.1602 107.347 48.7492 107.019 49.4649C106.692 50.1805 106.477 50.9612 106.376 51.8069C106.274 52.6526 106.269 53.5029 106.359 54.3577C106.493 55.6327 106.834 56.5051 107.381 56.9749C107.935 57.4367 108.585 57.6283 109.331 57.5498Z" fill="url(#paint9_linear_11_1112)"/>
<path d="M70.2744 31.2614L72.8899 35.8243C73.0382 36.0811 73.267 36.1885 73.51 36.1885C73.8737 36.1885 74.2517 35.9183 74.2517 35.4593L74.2651 26.3343C74.2651 25.8753 73.9014 25.5917 73.5368 25.5917C73.2938 25.5917 73.0516 25.7134 72.9033 25.9701L70.2744 30.5197C70.2074 30.6279 70.1797 30.7621 70.1797 30.8838C70.1797 31.0189 70.2065 31.1406 70.2744 31.2614Z" fill="#2FC18C"/>
<path d="M67.5651 32.8137L70.194 37.3632C70.2619 37.4849 70.3021 37.62 70.3021 37.7408C70.3021 38.1327 69.9518 38.47 69.5604 38.47C69.4389 38.47 69.3174 38.4431 69.1967 38.3751L61.31 33.7988C61.0536 33.6502 60.9464 33.4069 60.9464 33.1778C60.9464 32.8003 61.2296 32.4218 61.688 32.4218L66.9324 32.4487C67.2023 32.4487 67.4444 32.5838 67.5659 32.8128" fill="#2FC18C"/>
<path d="M66.9181 29.277H61.6738C61.2154 29.277 60.9455 28.9128 60.9455 28.5478C60.9455 28.3044 61.0536 28.062 61.3092 27.9135L69.2093 23.3648C69.3308 23.2977 69.4657 23.2566 69.5873 23.2566C69.9786 23.2566 70.3155 23.5939 70.3155 23.9992C70.3155 24.1208 70.2753 24.2425 70.2074 24.3633L67.5517 28.9128C67.4168 29.1428 67.188 29.277 66.9181 29.277Z" fill="#2FC18C"/>
<defs>
<filter id="filter0_i_11_1112" x="32.8991" y="13.6287" width="69.488" height="71.1715" filterUnits="userSpaceOnUse" color-interpolation-filters="sRGB">
<feFlood flood-opacity="0" result="BackgroundImageFix"/>
<feBlend mode="normal" in="SourceGraphic" in2="BackgroundImageFix" result="shape"/>
<feColorMatrix in="SourceAlpha" type="matrix" values="0 0 0 0 0 0 0 0 0 0 0 0 0 0 0 0 0 0 127 0" result="hardAlpha"/>
<feOffset dy="1.68354"/>
<feGaussianBlur stdDeviation="0.841768"/>
<feComposite in2="hardAlpha" operator="arithmetic" k2="-1" k3="1"/>
<feColorMatrix type="matrix" values="0 0 0 0 0.184314 0 0 0 0 0.756863 0 0 0 0 0.54902 0 0 0 1 0"/>
<feBlend mode="normal" in2="shape" result="effect1_innerShadow_11_1112"/>
</filter>
<filter id="filter1_if_11_1112" x="30.1439" y="10.8735" width="74.9983" height="74.9982" filterUnits="userSpaceOnUse" color-interpolation-filters="sRGB">
<feFlood flood-opacity="0" result="BackgroundImageFix"/>
<feBlend mode="normal" in="SourceGraphic" in2="BackgroundImageFix" result="shape"/>
<feColorMatrix in="SourceAlpha" type="matrix" values="0 0 0 0 0 0 0 0 0 0 0 0 0 0 0 0 0 0 127 0" result="hardAlpha"/>
<feOffset/>
<feGaussianBlur stdDeviation="3.78796"/>
<feComposite in2="hardAlpha" operator="arithmetic" k2="-1" k3="1"/>
<feColorMatrix type="matrix" values="0 0 0 0 0 0 0 0 0 0 0 0 0 0 0 0 0 0 0.25 0"/>
<feBlend mode="normal" in2="shape" result="effect1_innerShadow_11_1112"/>
<feGaussianBlur stdDeviation="1.68354" result="effect2_foregroundBlur_11_1112"/>
</filter>
<filter id="filter2_di_11_1112" x="19.8174" y="0.547047" width="95.6512" height="95.6512" filterUnits="userSpaceOnUse" color-interpolation-filters="sRGB">
<feFlood flood-opacity="0" result="BackgroundImageFix"/>
<feColorMatrix in="SourceAlpha" type="matrix" values="0 0 0 0 0 0 0 0 0 0 0 0 0 0 0 0 0 0 127 0" result="hardAlpha"/>
<feOffset/>
<feGaussianBlur stdDeviation="9.68033"/>
<feComposite in2="hardAlpha" operator="out"/>
<feColorMatrix type="matrix" values="0 0 0 0 0 0 0 0 0 0 0 0 0 0 0 0 0 0 1 0"/>
<feBlend mode="normal" in2="BackgroundImageFix" result="effect1_dropShadow_11_1112"/>
<feBlend mode="normal" in="SourceGraphic" in2="effect1_dropShadow_11_1112" result="shape"/>
<feColorMatrix in="SourceAlpha" type="matrix" values="0 0 0 0 0 0 0 0 0 0 0 0 0 0 0 0 0 0 127 0" result="hardAlpha"/>
<feOffset/>
<feGaussianBlur stdDeviation="3.78796"/>
<feComposite in2="hardAlpha" operator="arithmetic" k2="-1" k3="1"/>
<feColorMatrix type="matrix" values="0 0 0 0 0 0 0 0 0 0 0 0 0 0 0 0 0 0 0.25 0"/>
<feBlend mode="normal" in2="shape" result="effect2_innerShadow_11_1112"/>
</filter>
<filter id="filter3_d_11_1112" x="0.118822" y="26.8532" width="135.134" height="63.574" filterUnits="userSpaceOnUse" color-interpolation-filters="sRGB">
<feFlood flood-opacity="0" result="BackgroundImageFix"/>
<feColorMatrix in="SourceAlpha" type="matrix" values="0 0 0 0 0 0 0 0 0 0 0 0 0 0 0 0 0 0 127 0" result="hardAlpha"/>
<feOffset dy="2.10442"/>
<feGaussianBlur stdDeviation="6.5237"/>
<feComposite in2="hardAlpha" operator="out"/>
<feColorMatrix type="matrix" values="0 0 0 0 0 0 0 0 0 0 0 0 0 0 0 0 0 0 0.7 0"/>
<feBlend mode="normal" in2="BackgroundImageFix" result="effect1_dropShadow_11_1112"/>
<feBlend mode="normal" in="SourceGraphic" in2="effect1_dropShadow_11_1112" result="shape"/>
</filter>
<filter id="filter4_f_11_1112" x="16.5698" y="42.4581" width="101.937" height="30.018" filterUnits="userSpaceOnUse" color-interpolation-filters="sRGB">
<feFlood flood-opacity="0" result="BackgroundImageFix"/>
<feBlend mode="normal" in="SourceGraphic" in2="BackgroundImageFix" result="shape"/>
<feGaussianBlur stdDeviation="1.05221" result="effect1_foregroundBlur_11_1112"/>
</filter>
<radialGradient id="paint0_radial_11_1112" cx="0" cy="0" r="1" gradientUnits="userSpaceOnUse" gradientTransform="translate(70.364 64.1749) rotate(-106.227) scale(43.8151)">
<stop offset="0.0313437" stop-color="#002D22"/>
<stop offset="0.934697" stop-color="#036B52"/>
</radialGradient>
<linearGradient id="paint1_linear_11_1112" x1="77.1132" y1="59.227" x2="77.8919" y2="68.9298" gradientUnits="userSpaceOnUse">
<stop stop-color="#2FC18C"/>
<stop offset="0.544413" stop-color="#4BF8B9"/>
</linearGradient>
<linearGradient id="paint2_linear_11_1112" x1="75.1746" y1="43.9642" x2="78.1121" y2="66.8964" gradientUnits="userSpaceOnUse">
<stop stop-color="#4BF8B9"/>
<stop offset="0.447917" stop-color="#2FC18C"/>
</linearGradient>
<linearGradient id="paint3_linear_11_1112" x1="66.9989" y1="47.5588" x2="69.3421" y2="69.8311" gradientUnits="userSpaceOnUse">
<stop stop-color="#036B52"/>
<stop offset="0.493703" stop-color="#001A13"/>
</linearGradient>
<linearGradient id="paint4_linear_11_1112" x1="66.9989" y1="47.5588" x2="69.3421" y2="69.8311" gradientUnits="userSpaceOnUse">
<stop stop-color="#036B52"/>
<stop offset="0.493703" stop-color="#001A13"/>
</linearGradient>
<linearGradient id="paint5_linear_11_1112" x1="66.9989" y1="47.5588" x2="69.3421" y2="69.8311" gradientUnits="userSpaceOnUse">
<stop stop-color="#036B52"/>
<stop offset="0.493703" stop-color="#001A13"/>
</linearGradient>
<linearGradient id="paint6_linear_11_1112" x1="66.9989" y1="47.5588" x2="69.3421" y2="69.8311" gradientUnits="userSpaceOnUse">
<stop stop-color="#036B52"/>
<stop offset="0.493703" stop-color="#001A13"/>
</linearGradient>
<linearGradient id="paint7_linear_11_1112" x1="66.9989" y1="47.5588" x2="69.3421" y2="69.8311" gradientUnits="userSpaceOnUse">
<stop stop-color="#036B52"/>
<stop offset="0.493703" stop-color="#001A13"/>
</linearGradient>
<linearGradient id="paint8_linear_11_1112" x1="66.9989" y1="47.5588" x2="69.3421" y2="69.8311" gradientUnits="userSpaceOnUse">
<stop stop-color="#036B52"/>
<stop offset="0.493703" stop-color="#001A13"/>
</linearGradient>
<linearGradient id="paint9_linear_11_1112" x1="66.9989" y1="47.5588" x2="69.3421" y2="69.8311" gradientUnits="userSpaceOnUse">
<stop stop-color="#036B52"/>
<stop offset="0.493703" stop-color="#001A13"/>
</linearGradient>
</defs>
</svg>
